# xmcd
#
# Track frame offsets:
# 150
# 18032
# 28850
# 44482
# 63902
# 81415
# 97315
# 112802
# 127655
# 150487
#
# Disc length: 2118 seconds
#
#
# Revision: 1
# Processed by: cddbd v1.5.2PL0 Copyright (c) Steve Scherf et al.
# Submitted via: FreeRIP 2.945 
#
DISCID=7408440a
DTITLE=B. B. King - The Best of B.B. King
DYEAR=2003
DGENRE=Blues
TTITLE0=Paying The Cost To Be The Boss
TTITLE1=Recession Blues
TTITLE2=Letter
TTITLE3=Sweet Sixteen
TTITLE4=That Evil Child
TTITLE5=Lonely Nights
TTITLE6=Walkin And Cryin
TTITLE7=B. B. Boogie
TTITLE8=Everyday I Have The Blues
TTITLE9=A New Way Of Driving
EXTD=
EXTT0=
EXTT1=
EXTT2=
EXTT3=
EXTT4=
EXTT5=
EXTT6=
EXTT7=
EXTT8=
EXTT9=
PLAYORDER=
